<svg width="160" height="46" viewBox="0 0 160 46" fill="none" xmlns="http://www.w3.org/2000/svg">
<mask id="mask0_1632_5" style="mask-type:luminance" maskUnits="userSpaceOnUse" x="0" y="0" width="24" height="17">
<path d="M0 0.824722H23.0834V16.529H0V0.824722Z" fill="white"/>
</mask>
<g mask="url(#mask0_1632_5)">
<path d="M0.0136412 9.15434C0.0113723 8.82542 0.00683594 8.49423 0.00683594 8.16531C0.00683594 5.82658 0.00683594 3.48784 0.00683594 1.14683C0.00683594 0.829255 0.00910422 0.829255 0.306267 0.829255C7.80792 0.829255 15.3118 0.826987 22.8135 0.824718C23.0018 0.824718 23.0789 0.867818 23.0789 1.07424C23.0698 3.79408 23.0676 6.51618 23.0698 9.23828C22.9814 9.43336 22.7976 9.5309 22.632 9.63752C22.0195 10.03 21.4025 10.4156 20.7787 10.7944C19.8872 11.3592 18.998 11.9263 18.0884 12.4617C17.4056 12.895 16.716 13.3192 16.0241 13.7411C15.9062 13.8137 15.7905 13.8976 15.6589 13.9498C15.2824 14.1766 14.9103 14.4057 14.5338 14.6326C13.9916 14.957 13.4608 15.2995 12.9096 15.608C12.6124 15.7645 12.3266 15.9392 12.0521 16.1297C11.7958 16.3112 11.5553 16.3339 11.2877 16.1638C10.9905 15.9777 10.7047 15.7759 10.3939 15.6125C9.49335 15.1225 8.62909 14.5691 7.74894 14.0451C7.70584 14.0156 7.66047 13.9929 7.61057 13.9793C7.23174 13.6866 6.80755 13.4666 6.40377 13.2171C5.96823 12.9471 5.5395 12.6659 5.09036 12.4163C4.2397 11.8991 3.40265 11.3615 2.54519 10.8557C2.46353 10.8058 2.40455 10.7196 2.30247 10.6991C1.63556 10.2477 0.93235 9.85302 0.260899 9.40614C0.161088 9.33809 0.0635461 9.2723 0.0136412 9.15434Z" fill="#37498F"/>
</g>
<path d="M7.66025 13.884C8.35892 14.2991 9.05986 14.7142 9.75853 15.1294C9.98084 15.2632 10.2009 15.4016 10.4232 15.5377C10.4958 15.6193 10.523 15.7191 10.5253 15.828C10.5275 15.9324 10.5298 16.0367 10.5298 16.1411C10.5298 25.3622 10.5298 34.581 10.5298 43.7999C10.5298 43.9269 10.5321 44.0562 10.5207 44.1832C10.5139 44.2649 10.5071 44.3511 10.4118 44.3874C9.99445 44.1424 9.62243 43.8316 9.22999 43.5503C8.69465 43.1624 8.16837 42.7609 7.63756 42.364C7.56497 42.2823 7.53775 42.1825 7.53548 42.0759C7.53322 41.9625 7.53095 41.849 7.53095 41.7379C7.53095 32.6597 7.53095 23.5837 7.53095 14.5078C7.53095 14.3717 7.52868 14.2379 7.54002 14.1018C7.54683 14.011 7.55363 13.918 7.66025 13.884Z" fill="#FEFEFE"/>
<path d="M2.3432 10.5993C3.25057 11.1551 4.15794 11.7109 5.0653 12.2689C5.09479 12.2893 5.12201 12.3143 5.14923 12.3415C5.21048 12.4549 5.2377 12.5797 5.2309 12.709C5.2309 12.7997 5.23316 12.8882 5.23316 12.9789C5.23316 21.9573 5.23316 30.938 5.23316 39.9164C5.23316 40.0593 5.23543 40.1999 5.22409 40.3428C5.21955 40.4268 5.21275 40.5107 5.12428 40.5538C4.66833 40.2702 4.25321 39.93 3.81994 39.6169C3.31408 39.2517 2.8173 38.8729 2.31598 38.4986C2.18214 38.1561 2.19802 37.7909 2.19575 37.437C2.18214 35.7947 2.18895 34.1546 2.19122 32.5145C2.19349 30.2597 2.19122 28.0026 2.18668 25.7478C2.18441 25.2306 2.257 24.718 2.23205 24.2008C2.13904 22.2091 2.20483 20.2152 2.19349 18.2235C2.18441 16.4178 2.19349 14.6122 2.18668 12.8065C2.18214 12.1623 2.2502 11.5203 2.24112 10.8761C2.23886 10.7763 2.22751 10.6606 2.3432 10.5993Z" fill="#FEFEFE"/>
<path d="M12.8845 15.5196C13.4561 15.168 14.0255 14.8141 14.6017 14.4693C14.9329 14.2697 15.2527 14.0451 15.6043 13.8818C15.7155 13.9135 15.7223 14.0065 15.7291 14.0973C15.7404 14.2152 15.7359 14.3354 15.7359 14.4557C15.7359 23.5475 15.7359 32.6393 15.7336 41.7311C15.7336 41.9262 15.7903 42.1417 15.6202 42.3073C15.5703 42.4048 15.4659 42.4434 15.382 42.5046C14.5631 43.1148 13.7419 43.7228 12.9185 44.3285C12.8164 44.3058 12.8028 44.2241 12.7937 44.1402C12.7847 44.0199 12.7801 43.8997 12.7847 43.7795C12.7847 34.547 12.7847 25.3146 12.7847 16.0821C12.7847 15.8893 12.7484 15.6874 12.8845 15.5196Z" fill="#FEFEFE"/>
<path d="M18.0565 12.3778C18.6803 11.9876 19.3064 11.5974 19.9302 11.2073C20.2024 11.0394 20.4746 10.8738 20.7469 10.7059C20.8557 10.7445 20.883 10.833 20.8898 10.9373C20.8988 11.0712 20.8988 11.2073 20.8988 11.3411C20.8988 18.7475 20.8988 26.1516 20.8988 33.5557C20.8988 35.0483 20.9034 36.5387 20.8988 38.029C20.8988 38.2105 20.9011 38.3897 20.7718 38.5372C20.1956 38.9681 19.6217 39.3991 19.0455 39.8256C18.7325 40.0547 18.4127 40.2793 18.0973 40.5061C17.9862 40.4835 17.9658 40.3973 17.9567 40.3042C17.9454 40.1772 17.9454 40.0479 17.9454 39.9209C17.9454 30.9334 17.9454 21.9482 17.9476 12.9608C17.9476 12.7611 17.9136 12.5524 18.0565 12.3778Z" fill="#FEFEFE"/>
<mask id="mask1_1632_5" style="mask-type:luminance" maskUnits="userSpaceOnUse" x="9" y="15" width="5" height="31">
<path d="M9.98779 15.3675H13.4721V45.2494H9.98779V15.3675Z" fill="white"/>
</mask>
<g mask="url(#mask1_1632_5)">
<path d="M12.8845 15.5195C12.889 15.6171 12.8959 15.7124 12.8959 15.8099C12.8981 25.2193 12.9004 34.6287 12.9027 44.0381C12.9027 44.1334 12.914 44.2309 12.9185 44.3284C12.5465 44.5984 12.17 44.8661 11.8025 45.1428C11.6596 45.2494 11.5507 45.2494 11.4078 45.136C11.0834 44.8774 10.7454 44.6347 10.4119 44.3874C10.4119 39.4922 10.4119 34.5969 10.4119 29.7017C10.4119 25.0106 10.4119 20.3172 10.4097 15.6262C10.4119 15.5967 10.4165 15.5672 10.4233 15.5377C10.784 15.6693 11.0766 15.9211 11.4078 16.1071C11.5983 16.216 11.7503 16.2023 11.925 16.0867C12.2357 15.8825 12.5374 15.6647 12.8845 15.5195Z" fill="#DF413F"/>
</g>
<path d="M5.12451 40.5538C5.12905 40.0593 5.13585 39.5648 5.13585 39.0702C5.13359 30.296 5.13359 21.5195 5.13132 12.743C5.13132 12.6092 5.14266 12.4753 5.14946 12.3415C5.83906 12.7112 6.4901 13.149 7.15928 13.5551C7.32941 13.6572 7.52223 13.7275 7.6606 13.884C7.65606 14.0473 7.64472 14.2129 7.64472 14.3763C7.64472 23.5112 7.64245 32.6461 7.64245 41.781C7.64245 41.9761 7.64019 42.1689 7.63792 42.364C7.54037 42.3413 7.46552 42.2801 7.38839 42.2211C6.63301 41.6676 5.87989 41.1096 5.12451 40.5538Z" fill="#DF413F"/>
<path d="M18.0567 12.3778C18.0998 12.4708 18.0725 12.5706 18.0725 12.6659C18.0748 21.5785 18.0748 30.4911 18.0748 39.406C18.0748 39.7712 18.0907 40.1387 18.0975 40.5062C17.5803 40.8873 17.0654 41.2684 16.5482 41.6495C16.285 41.8445 16.0037 42.0169 15.7587 42.2392C15.7224 42.2778 15.6748 42.3005 15.6204 42.3073C15.6181 41.5111 15.6136 40.7171 15.6136 39.9232C15.6113 31.3486 15.6136 22.7717 15.6136 14.1971C15.6136 14.0905 15.6068 13.9861 15.6045 13.8818L18.0567 12.3778Z" fill="#DF413F"/>
<mask id="mask2_1632_5" style="mask-type:luminance" maskUnits="userSpaceOnUse" x="0" y="8" width="3" height="31">
<path d="M0 8.9797H2.43855V38.5961H0V8.9797Z" fill="white"/>
</mask>
<g mask="url(#mask2_1632_5)">
<path d="M2.34345 10.5993C2.33891 10.6969 2.32757 10.7921 2.32757 10.8897C2.32303 19.7342 2.32076 28.5765 2.31849 37.4211C2.31849 37.7795 2.31623 38.1402 2.31623 38.4986C1.95782 38.3352 1.68561 38.0494 1.36349 37.8317C0.955176 37.5549 0.565009 37.2532 0.161231 36.9697C0.0523466 36.8925 0.00470982 36.8041 0.00470982 36.6725C0.00924636 36.305 0.00470982 35.9375 0.00470982 35.57C0.00470982 26.8843 0.00244141 18.1985 0.00244141 9.51502C0.00244141 9.39479 0.0115146 9.27456 0.0137835 9.15434C0.723798 9.54904 1.39298 10.0073 2.08712 10.4247C2.17558 10.4768 2.25952 10.5403 2.34345 10.5993Z" fill="#DF413F"/>
</g>
<mask id="mask3_1632_5" style="mask-type:luminance" maskUnits="userSpaceOnUse" x="20" y="8" width="4" height="31">
<path d="M20.4407 8.9797H23.0834V38.5961H20.4407V8.9797Z" fill="white"/>
</mask>
<g mask="url(#mask3_1632_5)">
<path d="M20.7718 38.5372C20.7718 36.1621 20.7695 33.7871 20.7695 31.4121C20.7695 24.6431 20.7695 17.8764 20.7695 11.1075C20.7695 10.9736 20.7559 10.8398 20.7468 10.706C21.4591 10.2273 22.2145 9.819 22.9086 9.31315C22.9563 9.27912 23.0152 9.26324 23.0697 9.23829C23.072 9.71012 23.0742 10.182 23.0742 10.6538C23.0742 19.2738 23.0765 27.8915 23.081 36.5115C23.0833 36.7746 23.0016 36.9357 22.7907 37.0831C22.1623 37.5277 21.5476 37.995 20.9283 38.451C20.8784 38.4827 20.8262 38.5122 20.7718 38.5372Z" fill="#DF413F"/>
</g>
<path d="M7.60363 9.84171C7.37225 9.69653 7.13633 9.56042 6.91176 9.4039C6.53747 9.1385 6.54201 9.13623 6.16772 9.37895C5.94315 9.5264 5.71631 9.66931 5.4872 9.81222C5.46451 9.82356 5.43956 9.83037 5.41461 9.83263C5.37378 9.63528 5.48266 9.46742 5.51215 9.29048C5.53483 9.14077 5.56432 8.97744 5.6233 8.83907C5.71857 8.61676 5.64825 8.492 5.47359 8.36497C5.26262 8.21072 5.06527 8.03832 4.86338 7.87272C4.82255 7.84096 4.75677 7.81828 4.77038 7.7593C4.78626 7.67764 4.86565 7.7094 4.92009 7.70259C5.22406 7.65949 5.5303 7.66403 5.83426 7.61185C5.95676 7.59144 6.02027 7.5438 6.06337 7.43492C6.17906 7.14229 6.29929 6.85193 6.42178 6.56385C6.4422 6.51167 6.4422 6.42774 6.51706 6.43001C6.58738 6.43228 6.58965 6.51394 6.61006 6.56611C6.71668 6.83152 6.82329 7.09465 6.92537 7.36006C6.98662 7.51658 7.06601 7.61639 7.26337 7.6232C7.56053 7.63227 7.85769 7.67991 8.15485 7.71393C8.20249 7.71847 8.27054 7.70032 8.29096 7.76384C8.31137 7.83416 8.24332 7.86592 8.20022 7.90221C7.97792 8.08142 7.76469 8.2697 7.53558 8.43529C7.36771 8.55552 7.36544 8.69389 7.41308 8.86629C7.4834 9.13169 7.54919 9.39937 7.6127 9.66704C7.62404 9.71694 7.64673 9.76912 7.60363 9.84171Z" fill="#FEFEFE"/>
<path d="M17.2672 9.88252C16.9066 9.65341 16.5958 9.46287 16.2918 9.26324C16.1761 9.18612 16.0877 9.18385 15.9697 9.26551C15.668 9.46967 15.3572 9.65795 14.9966 9.88933C15.0533 9.63527 15.0828 9.43564 15.1485 9.2451C15.1894 9.1226 15.1916 8.99103 15.2415 8.87988C15.3482 8.6417 15.2506 8.50559 15.0669 8.37176C14.8559 8.2175 14.6563 8.04964 14.4521 7.88632C14.4113 7.85683 14.3478 7.82961 14.3682 7.76836C14.3863 7.70938 14.4544 7.72299 14.5043 7.71845C14.8151 7.68896 15.1281 7.65721 15.4412 7.63452C15.5614 7.62772 15.6294 7.57781 15.6725 7.46666C15.7905 7.1763 15.9153 6.88821 16.04 6.60012C16.0627 6.54795 16.065 6.46629 16.1398 6.46856C16.1965 6.47309 16.2056 6.54341 16.2238 6.59105C16.3304 6.85419 16.4393 7.11732 16.5436 7.38046C16.6049 7.53925 16.6888 7.63225 16.8839 7.63679C17.1969 7.6436 17.5077 7.68896 17.8185 7.71845C17.8684 7.72299 17.9342 7.71165 17.9432 7.78424C17.95 7.83414 17.8979 7.85683 17.8616 7.88178C17.5939 8.04737 17.3807 8.28329 17.1266 8.46703C16.9973 8.56004 16.9746 8.66438 17.0154 8.8141C17.1039 9.14982 17.1765 9.49009 17.2672 9.88252Z" fill="#FEFEFE"/>
<path d="M13.2384 5.17782C12.9231 5.43868 12.6532 5.6746 12.3719 5.89237C12.2539 5.98537 12.2267 6.07838 12.2653 6.22129C12.356 6.55701 12.4354 6.89501 12.5352 7.29652C12.3288 7.17402 12.1723 7.08555 12.0203 6.98801C11.8433 6.87686 11.6664 6.76571 11.4963 6.64321C11.4123 6.58197 11.3511 6.60011 11.2762 6.64775C10.9882 6.83603 10.6978 7.0175 10.4074 7.20351C10.3666 7.22846 10.3349 7.29425 10.2781 7.24434C10.2373 7.20805 10.2781 7.16268 10.2895 7.11958C10.3666 6.81108 10.4347 6.49803 10.5277 6.19407C10.5708 6.04889 10.5186 5.97176 10.4142 5.8901C10.2101 5.72904 10.0105 5.55891 9.80858 5.39332C9.73826 5.3366 9.66567 5.2867 9.60669 5.17328C9.84487 5.1506 10.0649 5.1143 10.2849 5.10749C10.6728 5.09615 10.995 5.02356 11.0857 4.56081C11.1197 4.3748 11.2263 4.20013 11.3035 4.02319C11.3239 3.96875 11.3216 3.88028 11.3897 3.88028C11.4713 3.88028 11.4736 3.97329 11.4985 4.03227C11.612 4.30901 11.7277 4.58349 11.8365 4.86251C11.8819 4.98046 11.9477 5.03264 12.0838 5.04398C12.4513 5.07347 12.8188 5.12564 13.2384 5.17782Z" fill="#FEFEFE"/>
<path d="M4.29173 6.50939C3.95374 6.29389 3.65431 6.11242 3.36622 5.91734C3.22558 5.81979 3.11669 5.80165 2.96698 5.91053C2.68343 6.11469 2.38173 6.29389 2.06869 6.49805C2.02559 6.25306 2.16623 6.06705 2.18211 5.85609C2.19345 5.71318 2.23655 5.56346 2.28192 5.42509C2.33182 5.27084 2.28419 5.18917 2.1753 5.10071C1.953 4.92377 1.73523 4.7423 1.51746 4.56082C1.47436 4.52453 1.40404 4.48823 1.43353 4.42018C1.45621 4.36347 1.52653 4.38842 1.57644 4.38162C1.87814 4.34079 2.18211 4.29769 2.48607 4.2682C2.60176 4.25459 2.65394 4.19788 2.69477 4.09807C2.80819 3.81451 2.93068 3.53323 3.05318 3.25195C3.07359 3.20204 3.07133 3.11811 3.15072 3.12491C3.21197 3.12945 3.21424 3.19977 3.23465 3.24741C3.3458 3.52416 3.46149 3.79863 3.56584 4.07765C3.61348 4.20468 3.67926 4.27273 3.82217 4.28408C4.14202 4.30676 4.46187 4.34532 4.77944 4.37935C4.82935 4.38615 4.89513 4.35893 4.91782 4.42018C4.94277 4.4837 4.87472 4.50865 4.83842 4.54041C4.62746 4.71961 4.4233 4.90789 4.201 5.06895C4.03087 5.19371 4.01272 5.33208 4.06489 5.51583C4.13748 5.78123 4.19873 6.0489 4.26451 6.31658C4.27585 6.36648 4.27812 6.41639 4.29173 6.50939Z" fill="#FEFEFE"/>
<path d="M12.5193 12.523C12.204 12.3256 11.8955 12.1464 11.6028 11.9422C11.4667 11.847 11.3669 11.8606 11.2422 11.9445C10.9518 12.1373 10.6546 12.3211 10.3325 12.5298C10.3393 12.2213 10.4686 11.9763 10.5027 11.7131C10.5072 11.6995 10.514 11.6859 10.5208 11.6723C10.6433 11.2799 10.641 11.2821 10.3189 11.0235C10.1193 10.8648 9.92421 10.7014 9.72912 10.5381C9.70644 10.52 9.69283 10.4927 9.64746 10.4315C9.88565 10.4065 10.0943 10.3634 10.303 10.3702C10.7567 10.3838 11.0425 10.2114 11.1492 9.74642C11.1991 9.53319 11.3193 9.33811 11.4123 9.1158C11.5575 9.25644 11.5756 9.42658 11.6482 9.56949C11.7208 9.71693 11.7957 9.86665 11.8342 10.0254C11.8955 10.275 12.0724 10.3226 12.2834 10.3407C12.5442 10.3657 12.8028 10.3884 13.0637 10.4156C13.1136 10.4201 13.1794 10.4111 13.1907 10.4791C13.1998 10.5313 13.1431 10.5494 13.1113 10.5767C12.8663 10.7763 12.6282 10.9804 12.3764 11.1687C12.2811 11.2413 12.2652 11.3116 12.2924 11.4182C12.365 11.6905 12.4308 11.9672 12.4966 12.2417C12.517 12.3256 12.5556 12.4095 12.5193 12.523Z" fill="#FEFEFE"/>
<path d="M20.9829 6.52074C20.6676 6.31885 20.3818 6.14645 20.1073 5.95817C19.9576 5.85382 19.8419 5.81753 19.6718 5.94229C19.3927 6.14645 19.0888 6.31658 18.7735 6.51393C18.7598 6.23945 18.8415 6.00354 18.9277 5.79711C19.1024 5.37519 19.0003 5.09844 18.6237 4.87387C18.4718 4.78086 18.347 4.64702 18.2086 4.53134C18.1746 4.50411 18.127 4.47916 18.1451 4.42699C18.1655 4.37255 18.22 4.39069 18.2608 4.38616C18.5897 4.3612 18.9164 4.33398 19.2408 4.275C19.3496 4.25459 19.3905 4.20922 19.4245 4.11622C19.5334 3.83947 19.6491 3.56272 19.7625 3.28597C19.7874 3.227 19.7942 3.15441 19.8963 3.11357C19.9871 3.33361 20.1096 3.54457 20.1617 3.77142C20.2683 4.22056 20.5678 4.34533 20.9761 4.34533C21.1485 4.34759 21.3186 4.37028 21.4888 4.38616C21.5319 4.39069 21.5863 4.37708 21.609 4.42699C21.6362 4.49277 21.5795 4.51999 21.5409 4.55402C21.3141 4.74684 21.0918 4.94646 20.8581 5.13247C20.7402 5.22547 20.7152 5.32755 20.7515 5.46592C20.8196 5.73133 20.8854 5.999 20.9489 6.26894C20.9647 6.337 20.9693 6.40958 20.9829 6.52074Z" fill="#FEFEFE"/>
<path d="M33.2636 1.11357L39.3793 11.1128H39.4246V1.11357H42.5913V15.5044H38.4447L32.1657 5.26024H32.1294V15.5044H28.9536V1.11357H33.2636Z" fill="#002868"/>
<path d="M52.8736 1.11357L59.1345 15.5044H55.5594L54.3164 12.4557H48.727L47.5292 15.5044H44.0359L50.2513 1.11357H52.8736ZM49.7251 9.76985H53.2366L51.4763 5.30561L49.7251 9.76985Z" fill="#002868"/>
<path d="M70.635 1.11357V3.91734H66.5337V15.5044H63.3579V3.91734H59.2566V1.11357H70.635Z" fill="#002868"/>
<path d="M75.3667 1.11357V15.5044H72.2V1.11357H75.3667Z" fill="#002868"/>
<path d="M85.247 0.75061C87.5517 0.75061 89.4209 1.44475 90.8546 2.82848C92.2927 4.20768 93.0141 6.03602 93.0141 8.30897C93.0141 10.5729 92.2882 12.3989 90.8364 13.7895C89.3846 15.1755 87.52 15.8673 85.247 15.8673C82.9423 15.8673 81.0686 15.1732 79.6304 13.7804C78.1968 12.3831 77.48 10.5592 77.48 8.30897C77.48 6.05871 78.1923 4.23943 79.6214 2.84663C81.055 1.44928 82.9287 0.75061 85.247 0.75061ZM80.7737 8.30897C80.7737 9.70632 81.1911 10.8292 82.0259 11.6753C82.8607 12.5237 83.9336 12.9456 85.247 12.9456C86.5899 12.9456 87.6697 12.5146 88.4863 11.6481C89.3075 10.777 89.7204 9.66549 89.7204 8.30897C89.7204 6.92978 89.303 5.81372 88.4682 4.96079C87.6334 4.10333 86.5536 3.67233 85.2289 3.67233C83.8973 3.67233 82.8198 4.10787 81.9987 4.97894C81.182 5.84547 80.7737 6.95473 80.7737 8.30897Z" fill="#002868"/>
<path d="M99.4677 1.11357L105.583 11.1128H105.629V1.11357H108.795V15.5044H104.649L98.3698 5.26024H98.3335V15.5044H95.1577V1.11357H99.4677Z" fill="#002868"/>
<path d="M123.266 0.75061C125.57 0.75061 127.439 1.44475 128.873 2.82848C130.311 4.20768 131.033 6.03602 131.033 8.30897C131.033 10.5729 130.307 12.3989 128.855 13.7895C127.403 15.1755 125.539 15.8673 123.266 15.8673C120.961 15.8673 119.087 15.1732 117.649 13.7804C116.215 12.3831 115.499 10.5592 115.499 8.30897C115.499 6.05871 116.211 4.23943 117.64 2.84663C119.074 1.44928 120.947 0.75061 123.266 0.75061ZM118.792 8.30897C118.792 9.70632 119.21 10.8292 120.044 11.6753C120.879 12.5237 121.952 12.9456 123.266 12.9456C124.608 12.9456 125.688 12.5146 126.505 11.6481C127.326 10.777 127.739 9.66549 127.739 8.30897C127.739 6.92978 127.322 5.81372 126.487 4.96079C125.652 4.10333 124.572 3.67233 123.247 3.67233C121.916 3.67233 120.838 4.10787 120.017 4.97894C119.201 5.84547 118.792 6.95473 118.792 8.30897Z" fill="#BF0A30"/>
<path d="M137.487 1.11357L143.602 11.1128H143.648V1.11357H146.814V15.5044H142.668L136.389 5.26024H136.352V15.5044H133.177V1.11357H137.487Z" fill="#BF0A30"/>
<path d="M159.637 1.11357V4.04437H153.031V6.7211H159.274V9.65189H153.031V12.5736H160V15.5044H149.865V1.11357H159.637Z" fill="#BF0A30"/>
<path d="M34.128 21.3267C35.6638 21.3267 36.9908 21.642 38.1114 22.2704C39.2365 22.901 40.0985 23.7653 40.6974 24.8654C41.2962 25.9611 41.5957 27.1792 41.5957 28.5221C41.5957 29.865 41.2622 31.09 40.5976 32.197C39.9307 33.2994 39.0029 34.1614 37.812 34.783C36.6188 35.4068 35.2917 35.7175 33.8286 35.7175H29.0105V21.3267H34.128ZM33.5201 33.8847C34.6203 33.8847 35.6275 33.6737 36.5416 33.2495C37.4535 32.8208 38.1772 32.206 38.7102 31.4076C39.2479 30.6091 39.5178 29.6473 39.5178 28.5221C39.5178 26.8957 39.0119 25.5959 38.0025 24.6205C36.9908 23.6473 35.6547 23.1596 33.9919 23.1596H30.9613V33.8847H33.5201Z" fill="#1E1E1E"/>
<path d="M54.6616 21.3267V23.1596H47.321V27.4424H54.1534V29.2752H47.321V33.8847H55.0245V35.7175H45.3701V21.3267H54.6616Z" fill="#1E1E1E"/>
<path d="M63.8427 21.3267C65.1539 21.3267 66.1951 21.6534 66.9641 22.3067C67.7376 22.9554 68.1255 23.8288 68.1255 24.929C68.1255 26.4851 67.2998 27.5399 65.6484 28.0957V28.132H65.6665C66.6034 28.2408 67.3542 28.631 67.9168 29.3025C68.4794 29.9739 68.7607 30.7792 68.7607 31.7161C68.7607 32.9206 68.2934 33.8892 67.3633 34.6196C66.4378 35.3523 65.2423 35.7175 63.7792 35.7175H58.7615V21.3267H63.8427ZM63.4344 27.3063C64.2442 27.3063 64.8817 27.1202 65.349 26.7437C65.8208 26.3694 66.0567 25.8363 66.0567 25.1467C66.0567 24.5002 65.8525 23.9853 65.4488 23.6042C65.0427 23.2231 64.5074 23.0326 63.8427 23.0326H60.7123V27.3063H63.4344ZM63.6613 34.0117C64.6231 34.0117 65.3671 33.7894 65.8934 33.3402C66.4196 32.8934 66.6828 32.3036 66.6828 31.5709C66.6828 30.7611 66.4128 30.1327 65.8752 29.6836C65.3422 29.2367 64.589 29.0121 63.6159 29.0121H60.7123V34.0117H63.6613Z" fill="#1E1E1E"/>
<path d="M82.1298 21.3267V23.1596H77.4932V35.7175H75.5424V23.1596H70.9148V21.3267H82.1298Z" fill="#1E1E1E"/>
<path d="M96.9661 21.3267C98.3748 21.3267 99.4795 21.6806 100.278 22.3883C101.077 23.0915 101.476 24.0806 101.476 25.3554C101.476 26.3172 101.145 27.1588 100.487 27.8779C99.8334 28.5924 98.9918 29.0166 97.9642 29.1482H97.937L102.029 35.7175H99.5884L95.9317 29.3751H93.7541V35.7175H91.8032V21.3267H96.9661ZM96.3945 27.6692C97.4107 27.6692 98.1661 27.4855 98.6629 27.1157C99.1574 26.7414 99.407 26.1539 99.407 25.3554C99.407 23.8084 98.402 23.0326 96.3945 23.0326H93.7541V27.6692H96.3945Z" fill="#1E1E1E"/>
<path d="M114.486 21.3267V23.1596H107.145V27.4424H113.978V29.2752H107.145V33.8847H114.849V35.7175H105.195V21.3267H114.486Z" fill="#1E1E1E"/>
<path d="M120.537 21.3267V33.8847H127.142V35.7175H118.586V21.3267H120.537Z" fill="#1E1E1E"/>
<path d="M132.059 21.3267V35.7175H130.108V21.3267H132.059Z" fill="#1E1E1E"/>
<path d="M146.024 21.3267V23.1596H138.683V27.4424H145.516V29.2752H138.683V33.8847H146.387V35.7175H136.732V21.3267H146.024Z" fill="#1E1E1E"/>
<path d="M159.17 21.3267V23.1596H152.075V27.6692H158.68V29.5021H152.075V35.7175H150.124V21.3267H159.17Z" fill="#1E1E1E"/>
</svg>
